<?xml version="1.0" standalone="no"?>
<!DOCTYPE svg PUBLIC "-//W3C//DTD SVG 20010904//EN"
 "http://www.w3.org/TR/2001/REC-SVG-20010904/DTD/svg10.dtd">
<svg version="1.0" xmlns="http://www.w3.org/2000/svg"
 width="591.000000pt" height="591.000000pt" viewBox="0 0 591.000000 591.000000"
 preserveAspectRatio="xMidYMid meet">

<g transform="translate(0.000000,591.000000) scale(0.100000,-0.100000)"
fill="#000000" stroke="none">
<path d="M3414 5218 c-77 -52 -84 -71 -73 -213 5 -66 16 -143 24 -171 17 -58
108 -247 260 -534 58 -110 105 -201 105 -203 0 -2 -114 -7 -252 -10 -558 -13
-788 -76 -848 -232 -9 -23 -9 -67 0 -180 15 -202 25 -238 130 -480 l22 -50 16
30 16 30 6 -28 5 -28 38 32 c42 35 63 32 29 -4 -29 -31 -28 -39 4 -27 14 6 32
10 40 10 25 0 6 -18 -26 -25 -17 -4 -30 -11 -30 -17 0 -6 10 -8 24 -4 14 3 28
2 31 -4 4 -6 -9 -10 -31 -10 -39 0 -38 -14 1 -23 11 -3 -4 -5 -32 -6 -29 0
-53 -3 -53 -5 0 -3 20 -48 45 -102 25 -53 45 -100 45 -105 0 -5 -36 -9 -79 -9
-293 0 -671 -69 -752 -137 -26 -22 -30 -31 -25 -57 9 -46 52 -105 90 -123 32
-15 35 -15 97 16 63 30 202 71 244 71 29 0 37 10 24 27 -9 10 -8 17 1 28 17
21 30 19 73 -11 31 -21 45 -24 80 -19 100 14 352 22 365 12 23 -18 121 -223
153 -319 59 -176 66 -364 16 -468 l-25 -51 25 -16 c37 -24 181 -12 205 18 51
62 73 282 44 430 -23 112 -67 243 -122 358 -24 52 -42 96 -40 98 2 3 44 13 93
24 155 34 367 115 388 149 3 5 14 10 24 10 35 0 176 79 232 129 101 90 152
190 170 334 18 141 -20 348 -96 529 -19 45 -34 82 -32 83 1 1 34 10 72 20 108
27 250 82 360 138 122 62 221 153 303 276 84 125 89 142 62 186 -15 24 -29 35
-45 35 -33 0 -155 -39 -155 -50 0 -4 -2 -15 -5 -22 -4 -9 5 -20 20 -28 29 -15
33 -40 7 -40 -13 0 -439 167 -580 227 -7 3 -12 17 -10 31 4 32 -19 41 -24 10
-2 -14 -9 -22 -18 -20 -8 2 -125 44 -259 95 -231 87 -245 94 -269 130 l-25 38
31 32 c18 18 32 38 32 44 0 25 -73 183 -85 183 -7 0 -34 -15 -61 -32z m654
-537 c268 -105 500 -195 515 -200 l28 -11 -53 -77 c-62 -92 -138 -170 -190
-197 l-37 -20 -83 80 c-94 90 -272 239 -482 406 -93 73 -153 128 -170 156 -27
45 -30 52 -20 52 3 0 225 -85 492 -189z m-29 -351 l210 -185 -42 -13 c-23 -8
-80 -16 -127 -19 l-85 -5 -33 65 c-19 36 -76 141 -129 234 -52 92 -98 174
-101 183 -3 8 17 -5 45 -30 28 -25 146 -128 262 -230z m-549 -414 c87 -24 126
-30 160 -25 25 4 75 9 111 13 l65 7 36 -78 c76 -162 103 -287 95 -427 -5 -84
-24 -172 -46 -205 -13 -21 -345 165 -336 188 8 19 8 19 6 51 -1 30 -24 46 -77
55 -35 6 -37 5 -22 -8 17 -13 17 -15 -1 -31 -18 -16 -21 -16 -50 -1 -27 14
-30 18 -20 36 7 14 7 25 1 31 -7 7 -12 3 -17 -11 -3 -12 -11 -21 -17 -21 -6 0
-79 37 -162 81 -381 206 -419 229 -402 246 3 3 24 1 46 -6 33 -10 49 -9 92 4
29 9 112 20 183 26 72 6 155 13 185 16 l55 5 -47 14 c-50 15 -69 43 -47 70 15
19 49 14 209 -30z m-340 -347 c179 -100 328 -186 332 -193 4 -6 8 -8 8 -4 0 4
19 -3 43 -16 237 -130 357 -199 357 -203 0 -3 -20 -34 -45 -69 -56 -79 -121
-132 -187 -155 l-51 -17 -76 61 c-67 53 -561 386 -618 415 -27 15 -151 259
-145 287 5 23 40 75 50 75 4 0 154 -82 332 -181z m328 -663 c14 -14 8 -14
-213 -32 l-70 -6 -38 61 c-46 72 -187 323 -187 333 0 7 483 -332 508 -356z"/>
<path d="M2351 4218 c-71 -35 -113 -127 -91 -201 6 -21 9 -41 7 -43 -11 -11
-47 -12 -54 -1 -5 7 -19 17 -33 23 -14 6 -61 41 -105 76 -93 76 -132 98 -174
98 -34 0 -84 -38 -106 -81 -23 -44 -19 -135 9 -195 29 -63 38 -69 61 -44 25
28 56 25 114 -11 97 -61 211 -41 256 43 23 44 69 55 105 26 26 -21 27 -21 32
11 2 20 -2 26 -22 31 -21 5 -25 12 -25 40 0 26 5 36 19 38 10 2 22 -1 26 -8
12 -19 66 -2 99 31 l30 29 35 -21 c29 -17 36 -27 36 -52 l1 -32 30 34 c29 31
31 39 27 87 -3 39 -11 61 -29 80 -58 63 -168 82 -248 42z"/>
<path d="M2400 3911 c0 -43 36 -91 69 -91 4 0 5 16 3 35 -2 19 -9 35 -15 35
-6 0 -21 10 -34 22 l-23 21 0 -22z"/>
<path d="M2690 2133 c-35 -13 -66 -25 -67 -27 -2 -1 4 -86 13 -187 9 -101 14
-208 12 -236 -3 -29 -4 -53 -2 -53 1 0 136 167 165 206 7 8 -17 200 -37 297
-7 32 -1 31 -84 0z"/>
<path d="M2405 2050 c-4 -6 19 -89 50 -186 31 -97 55 -181 53 -188 -2 -7 -82
-129 -178 -270 -96 -142 -174 -263 -172 -269 2 -5 -18 -41 -44 -79 -36 -51
-53 -68 -71 -68 -13 0 -23 -6 -23 -14 0 -19 99 -105 168 -147 61 -37 77 -30
68 30 -7 43 -37 75 -98 104 l-49 23 43 57 c24 31 48 55 55 52 7 -2 70 68 140
157 86 107 129 154 130 142 2 -11 -10 -136 -25 -279 -16 -143 -27 -262 -25
-264 12 -16 25 42 53 249 17 129 42 312 56 405 l24 170 -63 192 c-57 177 -74
211 -92 183z"/>
<path d="M2475 691 c-44 -11 -86 -41 -83 -60 4 -21 147 -37 221 -25 42 7 53
13 55 30 5 37 -41 64 -107 63 -31 -1 -70 -4 -86 -8z"/>
</g>
</svg>
