<svg xmlns="http://www.w3.org/2000/svg" viewBox="0 0 200 200">
  <style>
    .helix {
      stroke-width: 2;
      stroke: #00BFFF;
      fill: none;
    }
    .base-pair {
      stroke-width: 2;
      stroke: #FF6347;
      opacity: 0.8;
    }
    .circle {
      fill: #00FF7F;
      opacity: 0.8;
    }
    .base-pair, .circle {
      animation: move 4s infinite linear;
    }
    @keyframes move {
      0% {
        transform: translateY(0px);
      }
      50% {
        transform: translateY(-60px);
      }
      100% {
        transform: translateY(0px);
      }
    }
  </style>
  <!-- Left strand of the helix -->
  <path class="helix" d="M 50,20 C 60,60 40,140 50,180" />
  <path class="helix" d="M 50,180 C 60,140 40,60 50,20" />
  
  <!-- Right strand of the helix -->
  <path class="helix" d="M 150,20 C 140,60 160,140 150,180" />
  <path class="helix" d="M 150,180 C 140,140 160,60 150,20" />

  <!-- Base pairs -->
  <line class="base-pair" x1="50" y1="30" x2="150" y2="30" />
  <line class="base-pair" x1="50" y1="70" x2="150" y2="70" />
  <line class="base-pair" x1="50" y1="110" x2="150" y2="110" />
  <line class="base-pair" x1="50" y1="150" x2="150" y2="150" />

  <!-- Decorative circles -->
  <circle class="circle" cx="50" cy="30" r="5" />
  <circle class="circle" cx="150" cy="30" r="5" />
  <circle class="circle" cx="50" cy="70" r="5" />
  <circle class="circle" cx="150" cy="70" r="5" />
  <circle class="circle" cx="50" cy="110" r="5" />
  <circle class="circle" cx="150" cy="110" r="5" />
  <circle class="circle" cx="50" cy="150" r="5" />
  <circle class="circle" cx="150" cy="150" r="5" />
</svg>
